<svg xmlns="http://www.w3.org/2000/svg" width="1024" height="1024" viewBox="0 0 1024 1024">
  <defs>
    <linearGradient id="bg" x1="100" y1="80" x2="900" y2="940" gradientUnits="userSpaceOnUse"><stop offset="0" stop-color="#6D5CF6"/><stop offset="0.55" stop-color="#3979F6"/><stop offset="1" stop-color="#14B8A6"/></linearGradient>
    <filter id="shadow" x="-20%" y="-20%" width="140%" height="140%"><feDropShadow dx="0" dy="24" stdDeviation="30" flood-color="#12336B" flood-opacity=".28"/></filter>
  </defs>
  <rect x="64" y="64" width="896" height="896" rx="210" fill="url(#bg)"/>
  <g filter="url(#shadow)" fill="none" stroke="#fff" stroke-width="58" stroke-linecap="round" stroke-linejoin="round"><path d="M248 408V294c0-26 21-46 46-46h114"/><path d="M616 248h114c26 0 46 20 46 46v114"/><path d="M776 616v114c0 26-20 46-46 46H616"/><path d="M408 776H294c-25 0-46-20-46-46V616"/></g>
  <rect x="360" y="374" width="304" height="236" rx="38" fill="#fff" fill-opacity=".96"/><circle cx="512" cy="492" r="72" fill="none" stroke="#4B6FF2" stroke-width="38"/><rect x="570" y="584" width="218" height="176" rx="34" fill="#FFD84A" transform="rotate(-7 570 584)"/><path d="M620 638h116M620 686h86" stroke="#7B5B00" stroke-width="22" stroke-linecap="round" transform="rotate(-7 570 584)"/>
</svg>
